<svg viewBox="0 0 384 384" xmlns="http://www.w3.org/2000/svg" xmlns:xlink="http://www.w3.org/1999/xlink"><style>:root&gt;svg{display:none}:root&gt;svg:target{display:block}</style><svg viewBox="0 0 384 384" id="phone" xmlns="http://www.w3.org/2000/svg"><path d="M353.188 252.052c-23.51 0-46.594-3.677-68.469-10.906-10.719-3.656-23.896-.302-30.438 6.417l-43.177 32.594c-50.073-26.729-80.917-57.563-107.281-107.26l31.635-42.052c8.219-8.208 11.167-20.198 7.635-31.448-7.26-21.99-10.948-45.063-10.948-68.583C132.146 13.823 118.323 0 101.333 0h-70.52C13.823 0 0 13.823 0 30.813 0 225.563 158.438 384 353.188 384c16.99 0 30.813-13.823 30.813-30.813v-70.323c-.001-16.989-13.824-30.812-30.813-30.812z"/></svg><svg viewBox="0 0 33.994 33.994" id="tablet" xmlns="http://www.w3.org/2000/svg"><path d="M27.125 0H6.867a2.304 2.304 0 00-2.305 2.309v29.377a2.306 2.306 0 002.305 2.308h20.258a2.308 2.308 0 002.306-2.308V2.309A2.305 2.305 0 0027.125 0zM16.997 33.129a1.37 1.37 0 110-2.742 1.37 1.37 0 010 2.742zm10.101-3.943H6.896V2.774h20.202v26.412z"/></svg></svg>